<?xml version="1.0" encoding="UTF-8"?>
<svg id="penalty" xmlns="http://www.w3.org/2000/svg" viewBox="0 0 563.48 555.07">
  <path d="M533.51,366.24l-123.27,41.39,1.44-21.85,138.56-46.65c5.7-1.92,8.41-7.4,10.76-11.83v-9.39s-4.31-6.68-4.31-6.68l-71.84-61.67c-40.54-34.8-81.32-67.99-123.82-100.27-15.66-11.89-30.88-22.53-47.41-32.84-26.39-16.48-51.68-17.41-81.94-11.48-22.92,4.49-44.44,10.95-67.86,18.78,4.51-29.09-12.53-56.55-39.36-65.81-28.35-9.79-58.71,2.69-72.33,28.29-14.02,26.35-6.65,58.33,17.58,76.4-21.81,12.6-34.91,32-43.03,54.42-20,55.2-15.01,125.68,5.83,180.5,12.94,34.04,35.47,70.76,67.88,88.06,16.19,8.64,35.84,13.44,53.84,7.21l128.21-44.43c9.62-3.33,14.12-13.15,11.22-22.02-3.09-9.43-13.08-14.55-22.81-11.01l-56.68,19.63c7.43-19.32,12.42-36.79,14.56-57.03l154.23,70.44c5.56,2.15,9.91,2.09,15.4.24l146.79-49.42c9.37-3.15,13.16-13.39,10.62-21.52-2.85-9.13-12.6-14.7-22.28-11.45ZM98.44,90.58c13.81-3.75,26.92,4.74,30.28,17.77,3.31,12.85-4.47,26.44-17.94,29.87-12.46,3.17-25.61-3.99-29.49-16.55-4-12.92,2.91-27.22,17.15-31.09ZM398.33,353.33c-42.59-30.82-85.45-60.71-129.69-89.28-33.34-21.37-66.41-41.33-100.96-60.32-8.96-4.73-19.25-1.42-23.83,6.98-4.74,8.68-1.47,19.08,7.73,24.17,79.38,43.89,152.13,93.12,225.41,146.26l-1.96,25.09-153.28-69.96c-6.38-2.91-11.83-2.54-17.09.4-4.82,2.7-8.19,7.92-8.72,14.25-2.36,28.22-4.07,49.55-17.14,75.81-5.49,11.02-12.77,20.6-22.84,27.4-21.54,14.53-44.83,1.04-61.03-17.62-10.13-11.67-17.93-24.36-24.26-38.86-18.16-41.55-24.96-87.24-19.51-132.32,3.02-24.95,12.56-60.3,34.83-71.33,46.91-23.21,115.08-49.89,166.21-56.79,16.47-2.22,31.55,1.39,45.33,10.32,21.48,13.72,41.1,28.67,61.6,44.21l149.74,124.31-110.56,37.28Z"/>
  <path d="M347.58,208.15l-53.83,19.65c-9.06,3.31-12.68,14-9.45,22.15,3.32,8.38,12.61,13.81,22.29,10.27l51.97-18.98c9.18-3.35,13.41-13.14,10.55-21.86-2.73-8.33-12.26-14.62-21.52-11.24Z"/>
</svg>