<?xml version="1.0" encoding="UTF-8"?>
<svg id="turnover" xmlns="http://www.w3.org/2000/svg" viewBox="0 0 563.48 555.07">
  <path d="M505.1,275.92c-19.15-30.76-54.17-50.56-87.96-63.35-11.11-4.21-16.68-15.5-13.04-26.74,3.39-10.49,15.21-17.26,26.87-13.07,42.9,15.46,85.66,41.44,109.97,80.48,20.8,33.42,21.8,73.77,2.24,107.97-20.62,36.04-57.64,61.69-95.62,77.98-79.92,34.29-177.52,39.26-262.06,20.99-58.27-12.59-121.8-40.5-156.03-89.91-25.53-36.85-26.17-83.07-1.33-120.35,11.91-17.88,26.81-32.3,44.59-44.83,54.96-38.06,120.58-52.66,188.19-57.14l-76.32-76.41c-8.34-8.35-8.19-21.4-.54-29.49s21.67-9.05,30.42-.3l99.19,99.2c7.98,7.98,8.45,21.23.35,29.33l-99.85,99.9c-8.37,8.38-21.39,7.85-29.38.33s-9.17-21.13-1.05-29.29l47.34-47.58c-58.13,6.93-136.2,30.91-168.32,80.45-14.92,23.02-14.11,50.51,1.63,73.02,23.28,33.29,67.22,54.67,106.6,65.93,73.07,20.9,150.96,21.02,224.09.29,40.83-11.57,87.99-34.29,110.13-70.28,13.13-21.35,13.07-45.95-.12-67.15Z"/>
</svg>