<?xml version="1.0" encoding="UTF-8"?>
<svg id="game" xmlns="http://www.w3.org/2000/svg" viewBox="0 0 563.48 555.07">
  <path d="M525.1,352.03l-117.58,3.02c-27.36,3.31-53.37-9.17-66.04-33.81L193.21,16.7l-42.01,4.51,179.63,368.5c7.52,16.96,22.36,28.72,40.98,30.83l145.9,16.6c17.1,1.95,32.23-10.32,35.02-27.11l3.91-23.53c3.18-19.11-12.43-34.96-31.55-34.47Z"/>
  <path d="M231.58,389.89l40.76-83.66-22.08-44.97-27.44,56.12c-11.04,25.53-35.58,38.89-63.06,38.15l-124.31-3.35c-18.75-.51-32.62,17.26-29.59,34.99l3.95,23.1c3,17.57,18.84,28.88,36.55,26.81l147.72-17.22c17.47-2.04,30.41-14.95,37.5-29.98Z"/>
  <path d="M343.68,458.19c-30.25-19.38-98.39-19.14-126.33,1.43-2.78,2.05-6.97,6.52-6.96,10.09l.03,48.68c0,4.4,5.01,9.07,8.49,11.41,28.8,19.34,95.21,19.3,124.3.6,3.72-2.39,9.25-6.92,9.25-11.75v-49.25c-.01-4.38-5.34-9.02-8.77-11.22Z"/>
  <polygon points="411.3 21.18 369.26 16.71 290.17 179.12 312.34 224.15 411.3 21.18"/>
</svg>