<?xml version="1.0" encoding="UTF-8"?>
<svg id="shot" xmlns="http://www.w3.org/2000/svg" viewBox="0 0 563.48 555.07">
  <path d="M522.66,291.23c-28.47,10.95-66.18,16.98-106.2,16.98s-77.73-6.03-106.2-16.98c-19.52-7.51-33.4-16.92-40.81-27.44v57.3c0,31.23,65.82,56.54,147.01,56.54s147.01-25.32,147.01-56.54v-57.3c-7.42,10.52-21.29,19.93-40.81,27.44Z"/>
  <path d="M416.47,301.96c11.19,0,22.09-.48,32.57-1.39,2.24-.19,4.46-.41,6.66-.64.91-.1,1.81-.2,2.72-.3,1.75-.2,3.49-.41,5.21-.63,2.97-.39,5.9-.81,8.78-1.27,1.35-.21,2.69-.43,4.02-.66.44-.08.87-.15,1.31-.23,1.34-.24,2.67-.48,3.98-.73,2.18-.42,4.32-.85,6.44-1.31,1.52-.33,3.04-.66,4.53-1.01.3-.07.59-.14.88-.21,1.73-.41,3.44-.83,5.12-1.27,1.59-.41,3.15-.84,4.7-1.28.35-.1.71-.2,1.06-.3,1.64-.47,3.26-.96,4.85-1.46.23-.07.47-.14.71-.22,1.64-.52,3.25-1.06,4.82-1.6.17-.06.34-.12.51-.17.75-.26,1.49-.53,2.23-.8.12-.04.24-.08.35-.13.53-.19,1.05-.39,1.57-.59.32-.12.64-.24.95-.36.33-.13.65-.26.98-.39.5-.19,1-.39,1.48-.58,2.92-1.18,5.71-2.41,8.36-3.68.29-.14.59-.28.88-.42,1.24-.61,2.45-1.23,3.63-1.86.2-.11.41-.21.6-.32,1.8-.97,3.51-1.97,5.15-2.99.23-.14.47-.28.69-.43,1.05-.66,2.06-1.34,3.04-2.02.17-.12.34-.23.5-.34.28-.2.55-.4.82-.6.28-.2.57-.41.84-.61,2.1-1.58,4.01-3.2,5.72-4.86.05-.05.11-.1.16-.15.27-.26.53-.53.79-.8.16-.16.33-.33.49-.49.74-.78,1.43-1.57,2.09-2.36.07-.09.15-.18.22-.27.69-.86,1.33-1.72,1.92-2.59.02-.03.04-.06.06-.09.26-.39.5-.78.74-1.17.04-.06.08-.13.12-.19.79-1.32,1.46-2.66,2.01-4.02.02-.05.04-.09.06-.14.12-.31.23-.61.33-.92.06-.16.12-.33.18-.49.15-.46.29-.92.41-1.38,0-.01,0-.02.01-.04.1-.38.18-.75.26-1.13.02-.1.05-.2.07-.3.28-1.44.43-2.89.43-4.35,0-5.48-2.03-10.77-5.81-15.78-.54-.72-1.12-1.44-1.74-2.15-.44-.51-.89-1.01-1.37-1.51-.82-.87-1.7-1.72-2.63-2.57-.85-.77-1.74-1.53-2.68-2.29-.21-.17-.41-.33-.62-.5-3.62-2.85-7.85-5.57-12.62-8.13-.03-.02-.06-.03-.09-.05-1.23-.66-2.49-1.31-3.79-1.94-.73-.36-1.47-.71-2.21-1.06-.8-.37-1.61-.74-2.43-1.1-.27-.12-.56-.24-.83-.36-.56-.24-1.11-.48-1.68-.72-.33-.14-.67-.28-1-.41-.52-.22-1.05-.43-1.58-.64-.36-.14-.72-.28-1.08-.43-.52-.2-1.05-.41-1.58-.61-.38-.14-.75-.28-1.13-.43-.53-.2-1.07-.39-1.61-.59-.38-.14-.76-.27-1.14-.41-.56-.2-1.13-.39-1.7-.59-.37-.13-.74-.25-1.11-.38-.63-.21-1.27-.42-1.91-.63-.32-.1-.63-.21-.95-.31-1.93-.62-3.91-1.21-5.92-1.79-.34-.1-.68-.19-1.02-.29-.68-.19-1.35-.38-2.04-.57-.4-.11-.81-.22-1.22-.33-.63-.17-1.26-.33-1.9-.5-.43-.11-.87-.22-1.3-.33-.63-.16-1.26-.31-1.89-.47-.45-.11-.89-.22-1.34-.32-.64-.15-1.28-.3-1.92-.45-.45-.1-.9-.21-1.35-.31-.66-.15-1.33-.29-2-.44-.44-.09-.87-.19-1.31-.28-.74-.15-1.48-.31-2.22-.46-.38-.08-.75-.15-1.13-.23-1.12-.22-2.24-.44-3.38-.65-.01,0-.03,0-.04,0-1.13-.21-2.28-.41-3.43-.61-.39-.07-.78-.13-1.17-.2-.78-.13-1.56-.26-2.34-.39-.46-.07-.92-.14-1.38-.22-.73-.11-1.45-.23-2.19-.34-.49-.07-.97-.14-1.46-.21-.71-.1-1.43-.21-2.15-.3-.5-.07-1-.14-1.5-.2-.72-.1-1.45-.19-2.17-.28-.5-.06-1.01-.13-1.51-.19-.74-.09-1.49-.18-2.24-.26-.49-.06-.97-.11-1.46-.17-.83-.09-1.66-.18-2.5-.26-.41-.04-.83-.09-1.24-.13-2.5-.25-5.03-.47-7.59-.67-.42-.03-.84-.06-1.26-.09-.86-.06-1.72-.13-2.59-.19-.5-.03-1.01-.06-1.52-.1-.79-.05-1.59-.1-2.38-.14-.53-.03-1.07-.06-1.6-.09-.78-.04-1.56-.08-2.34-.12-.55-.03-1.09-.05-1.64-.07-.78-.03-1.57-.06-2.35-.09-.54-.02-1.08-.04-1.63-.06-.82-.03-1.64-.05-2.46-.07-.52-.01-1.03-.03-1.55-.04-.9-.02-1.8-.03-2.7-.04-.44,0-.88-.01-1.33-.02-1.34-.01-2.69-.02-4.05-.02-81.19,0-147.01,25.32-147.01,56.54s65.82,56.54,147.01,56.54Z"/>
  <rect x="122" y="207.79" width="130.49" height="28.05" rx="12.72" ry="12.72"/>
  <rect y="261.29" width="202.9" height="26.75" rx="12.72" ry="12.72"/>
  <path d="M211.71,314.79H75.36c-7.03,0-12.72,5.7-12.72,12.72s5.7,12.72,12.72,12.72h136.36c7.03,0,12.72-5.7,12.72-12.72s-5.7-12.72-12.72-12.72Z"/>
</svg>