<?xml version="1.0" encoding="UTF-8"?>
<svg id="goal" xmlns="http://www.w3.org/2000/svg" viewBox="0 0 563.48 555.07">
  <defs>
    <style>
      .cls-1 {
        fill: #1d1d1b;
      }
    </style>
  </defs>
  <path class="cls-1" d="M304.52,86.38h78.8c-19.37-27.9-50.74-46.81-86.66-49.28v41.42c0,4.34,3.52,7.86,7.86,7.86Z"/>
  <path class="cls-1" d="M280.66,78.52v-41.42c-35.91,2.47-67.29,21.38-86.66,49.28h78.8c4.34,0,7.86-3.52,7.86-7.86Z"/>
  <path class="cls-1" d="M296.66,369.37v54.66c0,4.34,3.52,7.86,7.86,7.86h99.32v-70.38h-99.32c-4.34,0-7.86,3.52-7.86,7.86Z"/>
  <path class="cls-1" d="M296.66,282.99v54.66c0,4.34,3.52,7.86,7.86,7.86h99.32v-70.38h-99.32c-4.34,0-7.86,3.52-7.86,7.86Z"/>
  <path class="cls-1" d="M173.49,527.8c0,15.06,12.21,27.26,27.26,27.26h175.82c15.06,0,27.26-12.21,27.26-27.26v-79.91h-230.34v79.91Z"/>
  <path class="cls-1" d="M296.66,110.23v54.66c0,4.34,3.52,7.86,7.86,7.86h99.32v-20.8c0-17.76-4.03-34.57-11.2-49.59h-88.11c-4.34,0-7.86,3.52-7.86,7.86Z"/>
  <path class="cls-1" d="M296.66,196.61v54.66c0,4.34,3.52,7.86,7.86,7.86h99.32v-70.38h-99.32c-4.34,0-7.86,3.52-7.86,7.86Z"/>
  <path class="cls-1" d="M280.66,424.04v-54.66c0-4.34-3.52-7.86-7.86-7.86h-99.32v70.38h99.32c4.34,0,7.86-3.52,7.86-7.86Z"/>
  <path class="cls-1" d="M280.66,251.28v-54.66c0-4.34-3.52-7.86-7.86-7.86h-99.32v70.38h99.32c4.34,0,7.86-3.52,7.86-7.86Z"/>
  <path class="cls-1" d="M280.66,164.9v-54.66c0-4.34-3.52-7.86-7.86-7.86h-88.11c-7.18,15.02-11.2,31.83-11.2,49.59v20.8h99.32c4.34,0,7.86-3.52,7.86-7.86Z"/>
  <path class="cls-1" d="M280.66,337.66v-54.66c0-4.34-3.52-7.86-7.86-7.86h-99.32v70.38h99.32c4.34,0,7.86-3.52,7.86-7.86Z"/>
  <path class="cls-1" d="M291.39.02c-85.31-1.51-154.69,68.7-154.69,154.03v271.51c0,12.33,10,22.33,22.33,22.33h14.47v-16h-11.65c-5.05,0-9.15-4.09-9.15-9.15v-52.09c0-5.05,4.09-9.15,9.15-9.15h11.65v-16h-11.65c-5.05,0-9.15-4.1-9.15-9.15v-52.09c0-5.05,4.09-9.15,9.15-9.15h11.65v-16h-11.65c-5.05,0-9.15-4.1-9.15-9.15v-52.09c0-5.05,4.09-9.15,9.15-9.15h11.65v-16h-11.65c-5.05,0-9.15-4.09-9.15-9.15v-11.65c0-15.2,2.53-29.8,7.16-43.46,1.25-3.68,4.75-6.13,8.64-6.13h16.19c2.68-5.6,5.8-10.94,9.31-16h-7.71c-7.48,0-11.82-8.51-7.4-14.54,21.34-29.15,53.98-49.52,91.42-54.59,5.48-.74,10.35,3.55,10.35,9.08v10.77c2.65-.18,5.31-.31,8-.31h0c2.69,0,5.35.13,8,.31v-10.77c0-5.53,4.87-9.82,10.35-9.08,37.44,5.07,70.09,25.44,91.42,54.59,4.42,6.04.08,14.54-7.4,14.54h-7.71c3.51,5.06,6.64,10.4,9.31,16h16.19c3.89,0,7.39,2.45,8.64,6.13,4.63,13.65,7.16,28.26,7.16,43.46v11.65c0,5.05-4.1,9.15-9.15,9.15h-11.65v16h11.65c5.05,0,9.15,4.09,9.15,9.15v52.09c0,5.05-4.1,9.15-9.15,9.15h-11.65v16h11.65c5.05,0,9.15,4.09,9.15,9.15v52.09c0,5.05-4.1,9.15-9.15,9.15h-11.65v16h11.65c5.05,0,9.15,4.1,9.15,9.15v52.09c0,5.05-4.1,9.15-9.15,9.15h-11.65v16h14.47c12.33,0,22.33-10,22.33-22.33V151.96C440.62,69.08,373.93,1.49,291.39.02Z"/>
</svg>